<svg xmlns="http://www.w3.org/2000/svg" viewBox="0 0 69.83 68"><defs><style>.cls-1{fill:#fbf8f5;}</style></defs><title>icon1</title><g id="Layer_2" data-name="Layer 2"><g id="Layer_1-2" data-name="Layer 1"><path class="cls-1" d="M59.58,0H5A5,5,0,0,0,0,5V17a3,3,0,0,0,3,3H59a4,4,0,0,0,4-4V3.42A3.42,3.42,0,0,0,59.58,0ZM27.85,3.5h5l-6.78,12h-5Zm-10.78,12h-5l6.78-12h5Zm19.78-12h5l-6.78,12h-5Zm9,0h5l-6.78,12h-5ZM5.5,12.69V6.31A2.81,2.81,0,0,1,8.31,3.5h6.54l-6.77,12A2.81,2.81,0,0,1,5.5,12.69Zm53,0a2.81,2.81,0,0,1-2.81,2.81H48.07l6.78-12h.84A2.81,2.81,0,0,1,58.5,6.31Z"/><path class="cls-1" d="M54.53,11.94l1.92-3.83A2,2,0,0,1,58.24,7H68A1.78,1.78,0,0,1,69.82,9L68.26,26.12A3.16,3.16,0,0,1,65.11,29H37.27A1.27,1.27,0,0,0,36,30.27V33h2.78a4.1,4.1,0,0,1,4.1,4.22l-.77,27A3.9,3.9,0,0,1,38.21,68H29.85A3.85,3.85,0,0,1,26,64.15V36.27A3.26,3.26,0,0,1,29.27,33h0a.73.73,0,0,0,.73-.73V27.56A2.6,2.6,0,0,1,32.56,25L61,24.55A3.53,3.53,0,0,0,64.5,21V12.41a.88.88,0,0,0-.91-.88l-5.09.16-3.36,1A.52.52,0,0,1,54.53,11.94Z"/></g></g></svg>