<svg xmlns="http://www.w3.org/2000/svg" viewBox="0 0 72.03 67.59"><defs><style>.cls-1{fill:#fbf8f5;}</style></defs><title>icon3</title><g id="Layer_2" data-name="Layer 2"><g id="Layer_1-2" data-name="Layer 1"><path class="cls-1" d="M69.5,40.5a18.09,18.09,0,0,1-2-15c2-6-3-8-5-11s0-10-5-12S45,7,45,7a39.08,39.08,0,0,0-4-5c-2-2-4-2-6-2S11,14,6,17c-1.15.69-3.19,2-3.89,2.47A4.85,4.85,0,0,0,0,23.53V64c2.5,4.5,6.5,3.5,6.5,3.5l56-1v-6a14.64,14.64,0,0,0,8-5C73.5,51.5,71.5,43.5,69.5,40.5Zm-21,22h-16v-26h-16v26H5.5l1-37a3.68,3.68,0,0,1,1.68-3c3.79-2.44,13-8.37,15.37-9.95,3-2,10-7,12-7s9,8,9,8,2,4-1,9-12,32,5,38Zm10,2h-5v-3h5Z"/><path class="cls-1" d="M33,12c-2.53,1.26-5,10,3,11s7-8,6-9S39,9,33,12Z"/></g></g></svg>