<svg xmlns="http://www.w3.org/2000/svg" viewBox="0 0 1860.5 526.5"><defs><style>.cls-1{fill:#2f57e1;}.cls-2{fill:#7b93f4;}.cls-3{fill:#d5ddf6;}.cls-4{fill:#2e4fe3;}.cls-5{fill:#fefbf0;}.cls-6{fill:#2d52bc;}.cls-7{fill:#fef7eb;stroke:#2d52bc;}.cls-29,.cls-7{stroke-miterlimit:10;}.cls-8{fill:#2e51e6;}.cls-9{fill:#d4dbf8;}.cls-10{fill:#2d50e2;}.cls-11{fill:#304fe6;}.cls-12{fill:#d7ddf5;}.cls-13{fill:#7f9afa;}.cls-14{fill:#3051e4;}.cls-15{fill:#2e51e4;}.cls-16{fill:#839ff9;}.cls-17{fill:#304fd4;}.cls-18{fill:#7996f7;}.cls-19{fill:#1c31ba;}.cls-20{fill:#738eed;}.cls-21{fill:#6a81da;}.cls-22{fill:#748fe8;}.cls-23{fill:#d6dffa;}.cls-24{fill:#8589be;}.cls-25{fill:#d8dff3;}.cls-26{fill:#9195b7;}.cls-27{fill:#cfd8fd;}.cls-28{fill:#d2dff4;}.cls-29{fill:none;stroke:#a4b4df;}.cls-30{fill:#6277c2;}.cls-31{fill:#8397f6;}.cls-32{fill:#7998fb;}.cls-33{fill:#1e4ce9;}.cls-34{fill:#697ef5;}.cls-35{fill:#c7cdf3;}.cls-36{fill:#7794fe;}.cls-37{fill:#7796fb;}.cls-38{fill:#d4ddfe;}.cls-39{fill:#7f9bf1;}.cls-40{fill:#d4dbfd;}.cls-41{fill:#d5dcfc;}.cls-42{fill:#f1f7ff;}.cls-43{fill:#74a3ff;}.cls-44{fill:#708ef5;}.cls-45{fill:#cddcfa;}.cls-46{fill:#ccdefd;}.cls-47{fill:#2f4ecf;}.cls-48{fill:#e6e8fa;}.cls-49{fill:#cfdef3;}.cls-50{fill:#5371d4;}.cls-51{fill:#c7e1f9;}.cls-52{fill:#2f51e6;}.cls-53{fill:#2d51c9;}.cls-54{fill:#3756d5;}.cls-55{fill:#97acf5;}.cls-56{fill:#5969c2;}.cls-57{fill:#cddbf6;}.cls-58{fill:#6078d7;}.cls-59{fill:#c8d7f8;}.cls-60{fill:#3c54be;}.cls-61{fill:#cbdcf3;}.cls-62{fill:#7698fc;}.cls-63{fill:#2b53e5;}.cls-64{fill:#cce3ed;}.cls-65{fill:#c5d1fb;}.cls-66{fill:#264ee2;}.cls-67{fill:#d5dcf8;}.cls-68{fill:#192dbc;}.cls-69{fill:#7b94ee;}.cls-70{fill:#284fe8;}.cls-71{fill:#fbf8f5;}.cls-72{fill:#3256ef;}.cls-73{fill:#3052c8;}.cls-74{fill:#1029bd;}.cls-75{fill:#7997ef;}.cls-76{fill:#294dc9;}.cls-77{fill:#5c71cb;}.cls-78{fill:#d7dff6;}.cls-79{fill:#7d92f6;}.cls-80{fill:#dedeee;}.cls-81{fill:#8098ee;}.cls-82{fill:#a9c0d3;}.cls-83{fill:#ccc8ca;}.cls-84{fill:#d8dcfe;}.cls-85{fill:#7a95f9;}.cls-86{fill:#7d91f3;}.cls-87{fill:#829bf8;}.cls-88{fill:#214fe9;}.cls-89{fill:#5879f1;}.cls-90{fill:#d0dafa;}</style></defs><title>Konten</title><g id="Layer_2" data-name="Layer 2"><g id="Layer_1-2" data-name="Layer 1"><path class="cls-1" d="M150,462.5s2-2,11-4,12-5,17-6,13,2,18,3,15,0,26,5,17,4,21,4,13.49,5,13.49,5l-2.49,4-55-1-.63-3.36L185,466.5Z"/><polygon class="cls-2" points="157 466.5 199 469.5 402 469.5 319 512.5 227 525.5 157 516.5 109 483.5 88 471.5 132 466.5 157 466.5"/><path class="cls-3" d="M88,471.5s21-4,32-7,21-7,28-5a69.29,69.29,0,0,0,20,3c7,0,24,3,24,3l7,4Z"/><path class="cls-4" d="M637,490.5l-6.35,10.67-6.54,11L615.88,526H310.65l-7.85-11.21L297,506.5s0-1.9,3.24-4.54c3.41-2.78,10.4-6.38,24.76-9.46a263.32,263.32,0,0,0,38.48-11.06c6.67-2.51,12-4.89,16.52-6.94,2.19-1,4.69-2,7.45-2.93,2.15-.73,4.46-1.43,6.89-2.07a98.51,98.51,0,0,1,34.66-3c19,2,33,7,56,0,17.65-5.37,40-9.56,59.39-8.95A87.11,87.11,0,0,1,561,459.5q3.48.79,7.07,1.54c20.25,4.24,43,7.25,68.93,5.46l.84.26C662.43,474.85,637,490.5,637,490.5Z"/><path class="cls-5" d="M728,474.5,711.27,526H536.5l1.44-1.15,1.33-1.08c2.66-2.13,7-5.57,11.85-9.36,3.63-2.85,7.57-5.88,11.32-8.7,4.48-3.38,8.71-6.45,11.87-8.53A25.8,25.8,0,0,1,579,494.5c6-2,12-10,22-11s29-9,36-16a8.54,8.54,0,0,1,.84-.74c7.73-6.12,28-4.33,51.16-6.26a49.37,49.37,0,0,1,25.46,4.69A48.53,48.53,0,0,1,728,474.5Z"/><rect class="cls-6" x="848.5" y="395" width="38" height="131"/><rect class="cls-7" x="886.5" y="379" width="212" height="147"/><rect class="cls-8" x="1098.5" y="379" width="108" height="147"/><rect class="cls-9" x="1206.5" y="379" width="219" height="147"/><rect class="cls-10" x="1425.5" y="379" width="215" height="147"/><rect class="cls-11" x="1640.5" y="379" width="197" height="147"/><rect class="cls-12" x="1837.5" y="379" width="23" height="147"/><polygon class="cls-13" points="1137.5 278 1137.5 295 1114.5 295 1114.5 316 1091.5 316 1091.5 337 1068.5 337 1068.5 356 1044.5 356 1044.5 369 992.5 369 992.5 379 1159.5 379 1159.5 369 1159.5 356 1159.5 337 1159.5 316 1159.5 295 1159.5 278 1137.5 278"/><rect class="cls-14" x="1159.5" y="255" width="453" height="124"/><rect class="cls-15" x="1402.5" y="140" width="376" height="63"/><rect class="cls-16" x="1612.5" y="255" width="77" height="124"/><rect class="cls-17" x="1689.5" y="255" width="171" height="124"/><rect class="cls-18" x="1309.5" y="170" width="294" height="85"/><rect class="cls-19" x="1603.5" y="203" width="257" height="52"/><polygon class="cls-20" points="1473.12 78 1463.88 78 1455.5 92 1481.5 92 1473.12 78"/><path class="cls-21" d="M1595.5,80h77a0,0,0,0,1,0,0V92a0,0,0,0,1,0,0h-89a0,0,0,0,1,0,0v0A12,12,0,0,1,1595.5,80Z"/><polygon class="cls-22" points="1724.65 77 1714.35 77 1707.5 92 1731.5 92 1724.65 77"/><rect class="cls-23" x="1514.5" y="77" width="16" height="15"/><rect class="cls-23" x="1511.5" y="71" width="21" height="6"/><polygon class="cls-24" points="1529.5 71 1514.5 71 1516.02 66 1527.98 66 1529.5 71"/><rect class="cls-25" x="1672.5" y="77" width="16" height="15"/><rect class="cls-25" x="1668.5" y="71" width="24" height="6"/><polygon class="cls-26" points="1685.34 65 1676.66 65 1674.5 71 1687.5 71 1685.34 65"/><rect class="cls-27" x="1515.5" y="225" width="167" height="30"/><polygon class="cls-28" points="1206.5 398 1206.5 394 1202.5 394 1202.5 388 1174.5 388 1174.5 424 1202.5 424 1202.5 415 1206.5 415 1206.5 411 1202.5 411 1202.5 398 1206.5 398"/><rect class="cls-29" x="1259.5" y="386" width="103" height="16" rx="1.82"/><rect class="cls-30" x="1210.5" y="407" width="210" height="3"/><path class="cls-31" d="M1372.78,384h36.44a4.28,4.28,0,0,1,4.28,4.28V407a0,0,0,0,1,0,0h-45a0,0,0,0,1,0,0V388.28A4.28,4.28,0,0,1,1372.78,384Z"/><rect class="cls-32" x="1235.5" y="424" width="105" height="59"/><rect class="cls-33" x="1359.5" y="424" width="48" height="102"/><rect class="cls-34" x="1447.5" y="416" width="63" height="29"/><rect class="cls-34" x="1447.5" y="449" width="63" height="29"/><rect class="cls-35" x="1443.5" y="478" width="72" height="5" rx="2.5"/><rect class="cls-36" x="1537.5" y="406" width="63" height="120"/><rect class="cls-37" x="1640.5" y="379" width="16" height="34"/><rect class="cls-37" x="1659.5" y="379" width="16" height="34"/><rect class="cls-37" x="1678.5" y="379" width="16" height="34"/><rect class="cls-37" x="1697.5" y="379" width="16" height="34"/><rect class="cls-37" x="1716.5" y="379" width="16" height="34"/><rect class="cls-37" x="1735.5" y="379" width="16" height="34"/><rect class="cls-37" x="1754.5" y="379" width="16" height="34"/><rect class="cls-37" x="1773.5" y="379" width="16" height="34"/><rect class="cls-37" x="1792.5" y="379" width="16" height="34"/><rect class="cls-37" x="1811.5" y="379" width="16" height="34"/><rect class="cls-37" x="1830.5" y="379" width="7" height="34"/><rect class="cls-38" x="1656.5" y="411" width="117" height="79"/><rect class="cls-39" x="1653.5" y="490" width="123" height="6" rx="3"/><rect class="cls-40" x="1787.5" y="430" width="40" height="96"/><rect class="cls-41" x="1174.5" y="292" width="47" height="59"/><rect class="cls-42" x="1170.5" y="351" width="54" height="6" rx="3"/><rect class="cls-43" x="1159.5" y="285" width="453" height="4"/><rect class="cls-43" x="1159.5" y="277" width="453" height="4"/><rect class="cls-43" x="1402.5" y="146" width="376" height="4"/><rect class="cls-43" x="1159.5" y="260" width="453" height="4"/><rect class="cls-44" x="1254.5" y="325" width="307" height="54"/><rect class="cls-45" x="1549.5" y="418" width="41" height="9"/><rect class="cls-46" x="1549.5" y="435" width="41" height="8"/><rect class="cls-47" x="1542.5" y="492" width="55" height="7"/><rect class="cls-47" x="1542.5" y="503" width="55" height="7"/><rect class="cls-47" x="1542.5" y="514" width="55" height="12"/><rect class="cls-48" x="1123.5" y="375" width="29" height="4"/><rect class="cls-49" x="1335" y="184.5" width="97" height="70"/><path class="cls-50" d="M1461.38,92h265a35.09,35.09,0,0,1,35.09,35.09v0A12.91,12.91,0,0,1,1748.59,140H1442.46a13,13,0,0,1-13-13v-3.15A31.88,31.88,0,0,1,1461.38,92Z"/><rect class="cls-48" x="1129.5" y="369" width="18" height="6"/><rect class="cls-48" x="1127.5" y="355" width="22" height="14"/><rect class="cls-51" x="1619.5" y="264" width="67" height="82"/><rect class="cls-52" x="1624" y="273.5" width="55" height="73"/><rect class="cls-53" x="1645" y="255.5" width="12" height="18"/><rect class="cls-54" x="1618.5" y="346" width="68" height="33"/><rect class="cls-55" x="1339.5" y="190.5" width="40" height="64"/><rect class="cls-55" x="1382" y="190.5" width="45" height="64"/><path class="cls-56" d="M1233.46,225h173.08a8,8,0,0,1,8,8v22a0,0,0,0,1,0,0h-189a0,0,0,0,1,0,0V233A8,8,0,0,1,1233.46,225Z"/><rect class="cls-57" x="1491.5" y="98" width="41" height="42"/><rect class="cls-58" x="1499.5" y="104" width="10" height="10"/><rect class="cls-58" x="1515.5" y="104" width="10" height="10"/><rect class="cls-58" x="1499.5" y="118" width="10" height="22"/><rect class="cls-58" x="1515.5" y="118" width="10" height="22"/><rect class="cls-57" x="1571.5" y="98" width="41" height="42"/><rect class="cls-58" x="1579.5" y="104" width="10" height="10"/><rect class="cls-58" x="1595.5" y="104" width="10" height="10"/><rect class="cls-58" x="1579.5" y="118" width="10" height="22"/><rect class="cls-58" x="1595.5" y="118" width="10" height="22"/><rect class="cls-57" x="1658.5" y="98" width="41" height="42"/><rect class="cls-58" x="1666.5" y="104" width="10" height="10"/><rect class="cls-58" x="1682.5" y="104" width="10" height="10"/><rect class="cls-58" x="1666.5" y="118" width="10" height="22"/><rect class="cls-58" x="1682.5" y="118" width="10" height="22"/><rect class="cls-12" x="1689.5" y="259" width="171" height="4"/><rect class="cls-12" x="1689.5" y="276" width="171" height="4"/><rect class="cls-59" x="1689.5" y="285" width="60" height="94"/><rect class="cls-60" x="1750" y="285.5" width="7" height="82"/><rect class="cls-61" x="1750" y="367.5" width="110.5" height="12"/><rect class="cls-62" x="1757" y="285.5" width="103.5" height="82.5"/><rect class="cls-63" x="1763" y="292.5" width="44" height="37"/><rect class="cls-63" x="1813" y="292.5" width="41" height="37"/><rect class="cls-63" x="1813" y="334.5" width="41" height="33"/><rect class="cls-63" x="1763" y="334.5" width="44" height="33"/><polygon class="cls-64" points="1854 329.5 1813 329.5 1813 292.5 1807 292.5 1807 329.5 1763 329.5 1763 334.5 1807 334.5 1807 367.5 1813 367.5 1813 334.5 1854 334.5 1854 329.5"/><rect class="cls-65" x="1799" y="285.5" width="26" height="9"/><rect class="cls-60" x="1694.5" y="291" width="51" height="6" rx="3"/><rect class="cls-60" x="1694.5" y="302" width="51" height="6" rx="3"/><rect class="cls-60" x="1694.5" y="312" width="51" height="6" rx="3"/><rect class="cls-60" x="1694.5" y="323" width="51" height="6" rx="3"/><rect class="cls-60" x="1694.5" y="334" width="51" height="6" rx="3"/><rect class="cls-60" x="1694.5" y="344" width="51" height="6" rx="3"/><rect class="cls-60" x="1694.5" y="354" width="51" height="6" rx="3"/><rect class="cls-60" x="1695.5" y="365" width="51" height="6" rx="3"/><path class="cls-66" d="M146,505.5V526H.5V466a78.92,78.92,0,0,1,12-3.48,123.28,123.28,0,0,1,25.33-2.86A130.14,130.14,0,0,1,68.5,463c9.54,2.2,18.47,4.64,26.59,7.1h0l1.41.43h0l2.47.77h0c23,7.2,38.64,14.27,41.5,15.7C144.5,489,146,505.5,146,505.5Z"/><path class="cls-67" d="M.5,499S47,490.5,58,492.5s34,10,45,12,43,4,60,4,64,17,64,17H0Z"/><path class="cls-68" d="M3,405.5,8.38,409S23,407.5,26,408.5s14,2,20,2,18,1,20-1,6-7,6-7-12,3-14,3,7-3,5-6-13-3-15-3-5-6-12-6-20,1-23,1-13,1-13,1Z"/><path class="cls-69" d="M68.36,526H14.76l-.47-.5L.5,511l0-.06h0l-.16-.18L0,510.5l.29-.34c.06-.07.14-.16.21-.26a49.73,49.73,0,0,0,6.94-12.09A64.16,64.16,0,0,0,12,479.5a121.88,121.88,0,0,0,.45-17C12,450.36,10,441,10,437.5c0-5-6-26-10-30v-15H0c.21.4,6.25,11.74,8.37,16.47.29.65.5,1.17.62,1.52a3.1,3.1,0,0,0,4,2v-21l6-2s-.12.65-.29,1.75c-.09.52-.18,1.14-.28,1.84a96,96,0,0,0-1.19,15.21c.1,3.28.58,6,1.76,7.2,4,4,5,12,5,12a176,176,0,0,0,3.49-18.63A63.77,63.77,0,0,0,28,401.5a23.34,23.34,0,0,0-2.06-9.42c-.18-.42-.37-.83-.57-1.21A26.44,26.44,0,0,0,21,384.5l7,2s.42,1.78,1.05,4.19l.38,1.44c1.36,4.95,3.34,11.37,4.57,11.37s3.56-4.9,4.59-10.55c.13-.68.24-1.38.33-2.08A26.2,26.2,0,0,0,39,384.5h5s-.61,3.65-1.46,8c-.13.69-.28,1.4-.42,2.12-1,4.82-2.16,9.94-3.12,11.85a14.11,14.11,0,0,0-1,3.64,117.74,117.74,0,0,0-1,15.36s9-12,9-15c0-2.14,3.57-8.87,5.61-12.54l.75-1.35L53,395.5l2,1s0,.11-.1.31l-.44,1.39c-.78,2.43-2.33,7.21-4.08,12.39S46.64,421.4,45,425.5c-3.33,8.31-8,20.08-7.22,34.16A54,54,0,0,0,39,468.5c2,8.75,3.65,17,5.71,24.15,2.15,7.52,4.69,13.74,8.29,17.85,5,5.69,11.49,11.9,14.82,15Z"/><path class="cls-70" d="M3,393.5l-3-1v-53s17-7,29-7,18-3,25,2,11,7,20,7,12,10,17,14,2,5,3,14,3,13,0,17-10,11-15,12-7,4-7,4-14,4-15,4-1-3,1-4,2-3-2-4-8,0-11-2-6-4-9-4-10-1-13,0S3,393.5,3,393.5Z"/><path class="cls-71" d="M564,510.5l-3,14.13-.29,1.37H227l.77-.6h0c5-3.77,32.87-23.89,58.25-23.89,5.47,0,10.14.19,14.24.46,16.91,1.11,24.28,3.56,38.76-.46l2.61-.72h0a116.61,116.61,0,0,1,16.73-3.42c8.49-1,17.16-.61,30.63,1.15.28,0,.56.07.83.12,22.63,3.14,41.45,13.81,64.17,7.88,23-6,39-11,57-13,11.59-1.29,19.86-5.06,27-6.51,3.93-.82,7.49-.91,11,.51,6.78,2.71,11.26,12.31,13.44,18.21C563.48,508.53,564,510.5,564,510.5Z"/><path class="cls-72" d="M454,526s26-14.5,34-7.5c11-8,25-10,31-8s25-4,25-4l9,10-17,9Z"/><path class="cls-73" d="M.28,510.92s14.44,4.58,22.58,14.58H0Z"/><path class="cls-74" d="M523.5,408s11-2,15,0,5,2,12,1,11-3,17-2,13,5,18,3,8-4,9-8,0-6,1-10,13-4,2-9-27-6-32-6-18-1-27,3-15,2-18,9S520.5,407,523.5,408Z"/><path class="cls-75" d="M521.5,525s16-28,21-56,3.5-31.5.5-38.5-14-26-14-26l-3-8h6l7,17,5,8,2,3v-11l-4-13-2-10,2-2s1,11,4,12,6-14,6-14h4l-4,16s3,18,5,19c3-3,7-13,7-13v-26l5,2-2,23,2,3,1,1,3-4,10-21,4,1s-6,20-8,24-9,20-9,21-1,23-2,29,1,24,6,35a123.36,123.36,0,0,1,7,19l-6,9Z"/><path class="cls-76" d="M526,403.5c1.84-2.15,13-10,20-12s14-2,19-2h14c3,0,11,0,12,2s-5,13-2,14,10,0,13-1,11-2,12-7-1-7-2-14,2-17-7-25-11-11-18-15-10-4-16-4-16-5-25-7-11-3-16,1-8,6-16,7-15,5-17,10-7,7-7,11,1,8,0,13-4,14,6,19,14,5,17,9S520,410.5,526,403.5Z"/><path class="cls-77" d="M360,443.5s3,3,6,3,15,2,20,2,13.17-.35,14.58-.17S405,444.5,405,443.5s4-2,2-6-7-8-10-9a39.18,39.18,0,0,0-13-2c-6,0-16,3-18,4S356,440.5,360,443.5Z"/><path class="cls-78" d="M358,498.5l9-28s2-11,2-12,1-9-2-13a61.22,61.22,0,0,0-5-6h6l3,6h5s1-13,2-13,4,2,4,2-1,10,0,10,12-14,12-14l3,1-9,15,6,2,1-2,7-13,4,2-4,7s-3,2-6,12-9,12-9,21,3,24,3,24Z"/><path class="cls-79" d="M363,445.5s-1.5,2.5-3.5-.5-11-9-11-14,3-10,3-13,4-10,8-11,9-2,13-4,13-2,15,0,13,2,15,3,1,7,5,10,8.5,2.5,7.5,8.5-1,17-2,18-3,2-7,4a17.27,17.27,0,0,1-7,2l3.94-7.64a9.2,9.2,0,0,0-6.51-8.41A15.38,15.38,0,0,0,384,433.5c-2,1-9,1-10,1s-4,4-6,5-4,4-4,4Z"/><path class="cls-80" d="M222.5,415c6.24-1,16-1,22-1h20c6,0,20,0,22,2s-1,7-6,7h-23c-5,0-17,1-22-1a24,24,0,0,0-10-2C223.5,420,216.5,416,222.5,415Z"/><path class="cls-80" d="M645.5,368s25-2,31-1,8,0,13,0,12,1,18,1,13-1,14,1-2,4-6,5-13,4-17,3-13-3-16-3-5-1-12,0-7,3-10,2S645.5,368,645.5,368Z"/><path class="cls-80" d="M700.5,388c1.58-1.58,19-1,21-2s15-1,20,0,11,3,12,4,5,4-1,4-10-2-15-1,0,4-8,2-6-3-9-3-8,1-11,1S697.5,391,700.5,388Z"/><path class="cls-80" d="M963.5,206c2.92-2.92,9,0,15,0s22-2,28-2,11-1,18,1,7,2,22,2,15-1,19,1,5,5,0,7-8,2-14,3-14,0-17,1-8,2-11,3-5-1-14-2-10-1-15-1-11-4-16-4S955.5,214,963.5,206Z"/><path class="cls-81" d="M1323.5,46c5,0,10,0,11,4s2,15-1,17c0,0-9,6-14,2s-7-12-4-17A13.23,13.23,0,0,1,1323.5,46Z"/><polygon class="cls-82" points="1318.5 38 1317.5 41 1335.5 42 1318.5 38"/><path class="cls-83" d="M1340.5,38s6,2,8,5,1,4,2,6,3,4,3,6-1.5,3.5-2.5.5-1-4-3-6-1-4-2-6-4-2-5-3A2.62,2.62,0,0,1,1340.5,38Z"/><path class="cls-83" d="M1318.5,29a18.66,18.66,0,0,1-4,3c-2,1-5,3-7,4s-6,6-6,7,2,1,3,1,4-6,6-7,4-3,6-4S1319.5,29,1318.5,29Z"/><path class="cls-83" d="M1296.5,50s-2,14-1,16,4,6,5,6,1-4,0-6-3-1-3-7S1297.5,50,1296.5,50Z"/><path class="cls-83" d="M1311.5,46s-6,9-6,13,0,8,3,12,4,2,4,1-5-7-5-9S1312.5,48,1311.5,46Z"/><path class="cls-83" d="M1339.5,46c-1,0-1,5,1,7s2,5,2,8,1,5,2,2,1-8,0-9S1340.5,46,1339.5,46Z"/><path class="cls-83" d="M1352.5,65c1,0,2,3-1,6s-16,14-16,14V82s6-7,8-8,7-4,7-5S1350.5,65,1352.5,65Z"/><path class="cls-83" d="M1336.5,69c2.24,0-2,5-3,6s-14,1-14,1V74s12-1,13-1S1334.5,69,1336.5,69Z"/><path class="cls-83" d="M1302.5,78a12.25,12.25,0,0,0,11,6h11s2,3-1,3S1302.5,91,1302.5,78Z"/><path class="cls-84" d="M977.5,461,971,526H560.71s.71-.51,2-1.39h0A189.91,189.91,0,0,1,580.58,514c9.31-4.84,20.6-9.61,30.92-11,6.48-.85,12.88-1.29,19.15-1.83,16-1.39,31.2-3.4,44.85-14.17,11.09-8.75,26.26-16.48,39-21.81,9.07-3.79,16.87-6.36,21-7.19,10-2,19-29,34-36s25-14,41-14c13.82,0,23.91,1.49,38,.61q3.33-.21,7-.61c15.14-1.68,22.5-.53,31,3.45,1.61.75,3.25,1.6,5,2.55,11,6,29,16,36,19s27,10,36,15A42.57,42.57,0,0,1,976,458.93C977,460.19,977.5,461,977.5,461Z"/><path class="cls-85" d="M1098.5,454.74V526h-133l-.28-.07L927.5,516,922,479.05S953.5,462,975.5,459l.52-.07c21.84-3,44.63-4.92,63.48-3.93,19,1,54,0,54,0Z"/><path class="cls-86" d="M1770.5,38s8-4,11-4h7s13-24,17-29,6-5,6-5-8,32-3,36c6,0,12-1,13,0s-1.5,12.5-1.5,12.5-8-3-10-3-3,1-3,6,3,18,3,21a53.84,53.84,0,0,1-1,8s-4-7-9-16-9-21-12-22S1768,42.5,1770.5,38Z"/><path class="cls-87" d="M806.5,516l-7.85,10H719.06s6.44-17,10.44-21,8-10,16-14,8-6,24,0,16,7,21,8,13,8.66,13.2,8.9h0Z"/><path class="cls-88" d="M965.24,526H785.73s3.65-10.72,18-18.1a54.72,54.72,0,0,1,6.8-2.9c0-8,14-13,17-15,2.34-1.56,10.76-15.9,21-23.07a21.23,21.23,0,0,1,9-3.93c14-2,20-6,23-7a22.28,22.28,0,0,1,6-.6c4.4,0,9.87.73,13,2.6,5,3,5,4,11,6,5.26,1.75,9.75,8.12,11.45,15.05a25.08,25.08,0,0,1,.55,2.95s5,6,11,9,6,8,9,10,10,8,15,11c4.77,2.86,7.49,13,7.72,13.93A.31.31,0,0,0,965.24,526Z"/><path class="cls-89" d="M671.06,526H588.6a75,75,0,0,0,14.9-8c4.62-3.3,13.61-4.86,20.61-5.83,3.61-.49,6.69-.83,8.39-1.17,5-1,15,0,20,2S671.06,526,671.06,526Z"/><path class="cls-90" d="M1098.5,477.69V526h-82.41a180.67,180.67,0,0,1,17.41-13c8-5,12-15,24-18s26-5,32-10S1098.5,477.69,1098.5,477.69Z"/></g></g></svg>