<svg xmlns="http://www.w3.org/2000/svg" viewBox="0 0 68.8 69.2"><defs><style>.cls-1{fill:#fbf8f5;}</style></defs><title>icon2</title><g id="Layer_2" data-name="Layer 2"><g id="Layer_1-2" data-name="Layer 1"><path class="cls-1" d="M68.5,27.71c0-7-3-10-8-17C55.82,4.15,44,.21,36,.21c0,0-7.5-1.5-17.5,3.5s-21,18-18,35,12,26,25,29,20,2,33-8S68.5,34.71,68.5,27.71Zm-7,22c-4,5-14,14-20,15s-18,0-24-5-12-13-12-16-2-15,1-22c.88-2.05,8-13,19-16s18,0,25,4,12,13,12,14S65.5,44.71,61.5,49.71Z"/><path class="cls-1" d="M22.5,26.71a5.45,5.45,0,0,1,7,1c2,2,4,6,6,3s12-15,12-15,2-1,3,0,0,5-4,9-12,14-13,14S17.5,29.71,22.5,26.71Z"/></g></g></svg>